<svg width="670" height="779" viewBox="0 0 670 779" fill="none" xmlns="http://www.w3.org/2000/svg">
<g opacity="0.9">
<path d="M335 778.56C520.015 778.56 670 693.357 670 588.254C670 483.15 520.015 397.947 335 397.947C149.985 397.947 0 483.15 0 588.254C0 693.357 149.985 778.56 335 778.56Z" fill="#F5F5F5" fill-opacity="0.5"/>
<path d="M474.406 708.245L224.342 563.858C222.142 562.59 220.315 560.766 219.045 558.568C217.774 556.37 217.105 553.876 217.105 551.337C217.105 548.798 217.774 546.304 219.045 544.106C220.315 541.908 222.142 540.083 224.342 538.816L249.01 523.26C253.268 520.808 258.096 519.517 263.01 519.517C267.924 519.517 272.752 520.808 277.01 523.26L527.109 667.665C529.308 668.932 531.135 670.757 532.406 672.955C533.676 675.153 534.345 677.647 534.345 680.186C534.345 682.724 533.676 685.218 532.406 687.417C531.135 689.615 529.308 691.439 527.109 692.707L502.44 708.245C498.18 710.711 493.345 712.009 488.423 712.009C483.501 712.009 478.666 710.711 474.406 708.245V708.245Z" fill="#E0E0E0"/>
<path d="M94.1842 576.609C124.155 576.609 148.451 562.657 148.451 545.447C148.451 528.236 124.155 514.284 94.1842 514.284C64.2136 514.284 39.9177 528.236 39.9177 545.447C39.9177 562.657 64.2136 576.609 94.1842 576.609Z" fill="#E6E6E6"/>
<path d="M466.79 690.99L246.868 564.011C231.347 555.051 218.766 531.012 218.766 510.323V39.4014C218.766 18.7114 231.347 9.208 246.868 18.1674L466.79 145.146C482.312 154.105 494.892 178.145 494.892 198.834V669.756C494.892 690.429 482.312 699.949 466.79 690.99Z" fill="#455A64"/>
<path d="M492.121 130.339L272.182 3.36013C265.552 -0.465037 259.466 -0.907058 254.655 1.43905C254.066 1.73402 253.498 2.06916 252.955 2.44209L228.303 16.7737C233.268 13.7986 239.762 14.0196 246.885 18.1338L466.807 145.112C482.329 154.072 494.909 178.111 494.909 198.801V669.722C494.909 680.671 491.39 688.423 485.78 692.095L510.108 677.933C516.313 674.635 520.309 666.56 520.309 654.982V184.061C520.309 163.337 507.643 139.298 492.121 130.339Z" fill="#37474F"/>
<path d="M494.893 198.801V669.722C494.893 680.67 491.373 688.423 485.763 692.095L510.108 677.933C516.314 674.635 520.309 666.56 520.309 654.982V184.061L494.978 198.767L494.893 198.801Z" fill="#263238"/>
<path d="M520.224 220.596L494.892 235.216V246.641L520.224 232.003V220.596Z" fill="#37474F"/>
<path d="M509.122 296.572C506.861 297.881 505.025 296.487 505.025 293.478V268.912C505.048 267.376 505.431 265.867 506.142 264.506C506.854 263.145 507.874 261.97 509.122 261.075V261.075C511.383 259.766 513.219 261.075 513.219 264.169V288.735C513.197 290.27 512.814 291.779 512.102 293.14C511.391 294.502 510.37 295.677 509.122 296.572V296.572Z" fill="#37474F"/>
<path d="M505.008 293.546V268.911C505.031 267.376 505.414 265.867 506.125 264.506C506.837 263.145 507.858 261.969 509.106 261.074C509.478 260.813 509.913 260.654 510.366 260.612C510.819 260.571 511.275 260.648 511.69 260.836L508.613 259.255C508.192 259.052 507.725 258.965 507.259 259C506.793 259.036 506.345 259.194 505.96 259.459C504.711 260.354 503.689 261.529 502.975 262.89C502.26 264.251 501.874 265.76 501.846 267.296V291.845C501.782 292.466 501.877 293.092 502.121 293.666C502.364 294.239 502.75 294.742 503.24 295.127V295.127L506.453 296.827C505.942 296.458 505.538 295.96 505.284 295.383C505.03 294.806 504.935 294.172 505.008 293.546V293.546Z" fill="#455A64"/>
<path d="M509.122 356.025C506.861 357.334 505.025 356.025 505.025 352.93V328.364C505.049 326.829 505.433 325.32 506.144 323.96C506.855 322.599 507.875 321.423 509.122 320.527V320.527C511.383 319.218 513.219 320.527 513.219 323.638V348.187C513.199 349.723 512.818 351.233 512.106 352.595C511.394 353.956 510.372 355.131 509.122 356.025V356.025Z" fill="#37474F"/>
<path d="M505.008 352.93V328.364C505.032 326.828 505.415 325.32 506.127 323.959C506.838 322.598 507.858 321.423 509.105 320.526C509.48 320.27 509.914 320.114 510.366 320.072C510.818 320.031 511.274 320.105 511.689 320.288V320.288L508.612 318.69C508.193 318.479 507.725 318.386 507.257 318.422C506.79 318.458 506.341 318.621 505.96 318.894C504.708 319.787 503.683 320.961 502.969 322.323C502.254 323.684 501.869 325.194 501.846 326.732V351.349C501.78 351.969 501.874 352.596 502.118 353.17C502.362 353.744 502.748 354.247 503.24 354.63V354.63L506.453 356.33C505.921 355.953 505.503 355.435 505.248 354.835C504.993 354.234 504.91 353.575 505.008 352.93Z" fill="#455A64"/>
<path d="M459.106 158.357L242.992 33.5375C242.09 33.0186 241.068 32.7446 240.028 32.7427C238.987 32.7408 237.964 33.011 237.06 33.5265C236.156 34.042 235.403 34.7849 234.875 35.6815C234.347 36.5781 234.062 37.5972 234.05 38.6377V510.324C234.05 526.067 245.219 545.396 258.854 553.268L469.663 675.044C470.663 675.619 471.797 675.922 472.95 675.921C474.103 675.92 475.236 675.616 476.235 675.039C477.234 674.462 478.064 673.633 478.641 672.634C479.218 671.635 479.523 670.502 479.524 669.349V193.77C479.609 180.781 470.394 164.851 459.106 158.357Z" fill="#00A1AB"/>
<path opacity="0.9" d="M459.106 158.357L242.992 33.5375C242.09 33.0186 241.068 32.7446 240.028 32.7427C238.987 32.7408 237.964 33.011 237.06 33.5265C236.156 34.042 235.403 34.7849 234.875 35.6815C234.347 36.5781 234.062 37.5972 234.05 38.6377V510.324C234.05 526.067 245.219 545.396 258.854 553.268L469.663 675.044C470.663 675.619 471.797 675.922 472.95 675.921C474.103 675.92 475.236 675.616 476.235 675.039C477.234 674.462 478.064 673.633 478.641 672.634C479.218 671.635 479.523 670.502 479.524 669.349V193.77C479.609 180.781 470.394 164.851 459.106 158.357Z" fill="white"/>
<path d="M307.629 66.1265L310.978 80.2201L382.62 121.532L394.996 114.936L307.629 66.1265Z" fill="#455A64"/>
<path d="M328.693 79.7443C328.693 82.0904 326.993 83.0255 325.021 81.8694C323.962 81.1665 323.083 80.2252 322.454 79.1209C321.825 78.0166 321.464 76.7803 321.4 75.5111C321.4 73.182 323.1 72.23 325.072 73.403C326.13 74.1023 327.01 75.0405 327.639 76.142C328.268 77.2435 328.629 78.4775 328.693 79.7443V79.7443Z" fill="#263238"/>
<path d="M376.958 109.582C376.566 109.579 376.181 109.479 375.836 109.293L339.25 88.8918C338.734 88.5884 338.356 88.0951 338.199 87.5172C338.041 86.9393 338.115 86.3227 338.406 85.7989C338.697 85.2751 339.181 84.8858 339.755 84.714C340.329 84.5423 340.947 84.6017 341.478 84.8796L378.08 105.281C378.525 105.528 378.875 105.916 379.075 106.384C379.276 106.852 379.315 107.373 379.186 107.866C379.058 108.359 378.769 108.794 378.366 109.105C377.962 109.416 377.467 109.583 376.958 109.582V109.582Z" fill="#263238"/>
<path d="M279.374 131.7C277.146 130.407 275.531 131.53 275.531 134.369C275.531 135.788 275.882 137.186 276.552 138.438C277.223 139.689 278.192 140.756 279.374 141.543C280.007 141.927 280.733 142.13 281.473 142.13C282.214 142.13 282.94 141.927 283.573 141.543L287.126 147.969C285.876 148.659 284.459 148.988 283.033 148.919C281.607 148.85 280.228 148.386 279.051 147.578C276.164 145.812 273.757 143.362 272.043 140.444C270.329 137.526 269.361 134.231 269.224 130.849C269.224 124.542 273.457 122.349 279.289 125.749C282.582 127.87 285.279 130.796 287.126 134.25L283.573 137.072C282.697 134.927 281.243 133.068 279.374 131.7Z" fill="#00A1AB"/>
<path d="M307.578 153.001C307.578 159.359 303.277 161.501 297.378 158.101C294.409 156.327 291.924 153.846 290.144 150.88C288.365 147.915 287.346 144.555 287.177 141.1C287.177 134.742 291.478 132.6 297.378 136C300.354 137.766 302.844 140.245 304.625 143.212C306.405 146.18 307.42 149.544 307.578 153.001V153.001ZM293.485 144.891C293.514 146.351 293.891 147.783 294.582 149.069C295.274 150.354 296.261 151.457 297.463 152.287C299.571 153.511 301.271 152.287 301.271 149.397C301.265 147.97 300.916 146.565 300.253 145.302C299.59 144.038 298.633 142.953 297.463 142.137C295.321 140.896 293.485 141.95 293.485 144.891Z" fill="#00A1AB"/>
<path d="M314.429 146.252L321.774 161.552V150.536L327.333 153.749V175.187L322.233 172.229L314.922 157.064V168.013L309.329 164.782V143.293L314.429 146.252Z" fill="#00A1AB"/>
<path d="M345.507 164.187V169.797L340.202 166.737V182.582L334.065 179.028V163.184L328.795 160.141V154.547L345.507 164.187Z" fill="#00A1AB"/>
<path d="M357.475 189.519L350.505 185.49L349.553 187.972L343.263 184.334L351.1 167.418L357.407 171.056L364.956 196.863L358.41 193.089L357.475 189.519ZM355.962 183.569L354.058 176.241L352.103 181.342L355.962 183.569Z" fill="#00A1AB"/>
<path d="M374.697 186.73C372.47 185.455 370.855 186.56 370.855 189.416C370.858 190.836 371.21 192.232 371.88 193.483C372.55 194.735 373.517 195.802 374.697 196.591C375.334 196.971 376.063 197.172 376.805 197.172C377.547 197.172 378.276 196.971 378.913 196.591L382.466 203.017C381.211 203.699 379.792 204.023 378.365 203.954C376.939 203.885 375.558 203.426 374.374 202.626C371.485 200.858 369.077 198.405 367.363 195.484C365.649 192.563 364.682 189.264 364.548 185.88C364.548 179.573 368.798 177.38 374.612 180.78C377.901 182.911 380.602 185.834 382.466 189.28L378.913 192.086C378.018 189.952 376.561 188.102 374.697 186.73Z" fill="#00A1AB"/>
<path d="M399.229 195.214V200.807L393.925 197.747V213.643L387.788 210.09V194.245L382.517 191.202V185.608L399.229 195.214Z" fill="#00A1AB"/>
<path d="M417.369 221.53C418.882 222.397 420.038 221.717 420.038 219.592V207.233L426.192 210.769V223.128C426.192 228.824 422.792 230.524 417.352 227.413C414.731 225.957 412.528 223.853 410.953 221.302C409.378 218.751 408.485 215.838 408.358 212.843V200.483L414.513 204.037V216.396C414.536 217.419 414.809 218.422 415.306 219.316C415.804 220.211 416.512 220.971 417.369 221.53V221.53Z" fill="#00A1AB"/>
<path d="M436.104 221.599C435.407 221.208 434.965 221.191 434.965 221.837C434.965 224.523 444.57 228.399 444.57 236.168C444.57 240.929 440.949 240.946 436.767 238.531C433.09 236.279 429.923 233.286 427.467 229.742L429.745 225.73C431.615 228.624 434.014 231.139 436.818 233.142C437.719 233.669 438.297 233.669 438.297 232.904C438.297 230.116 428.674 226.41 428.674 218.879C428.674 214.594 431.802 213.778 436.631 216.498C439.741 218.38 442.478 220.817 444.706 223.69L442.479 227.804C440.639 225.461 438.495 223.374 436.104 221.599V221.599Z" fill="#00A1AB"/>
<path d="M248.449 237.342C255.347 228.87 258.819 218.12 258.181 207.213C257.542 196.307 252.839 186.036 245 178.426C237.16 170.817 226.754 166.422 215.833 166.109C204.912 165.795 194.271 169.586 186.008 176.734C177.745 183.881 172.461 193.865 171.198 204.717C169.935 215.569 172.785 226.5 179.186 235.354C185.587 244.208 195.074 250.341 205.775 252.544C216.475 254.747 227.613 252.859 236.99 247.253L258.275 256.501L248.449 237.342Z" fill="#00A1AB"/>
<path opacity="0.4" d="M248.449 237.342C255.347 228.87 258.819 218.12 258.181 207.213C257.542 196.307 252.839 186.036 245 178.426C237.16 170.817 226.754 166.422 215.833 166.109C204.912 165.795 194.271 169.586 186.008 176.734C177.745 183.881 172.461 193.865 171.198 204.717C169.935 215.569 172.785 226.5 179.186 235.354C185.587 244.208 195.074 250.341 205.775 252.544C216.475 254.747 227.613 252.859 236.99 247.253L258.275 256.501L248.449 237.342Z" fill="black"/>
<path d="M198.399 207.421C198.399 206.758 197.923 206.384 197.056 206.384C195.045 206.647 193.167 207.533 191.684 208.917L189.27 204.225C191.811 202.312 194.881 201.232 198.059 201.13C202.139 201.13 205.233 203.272 205.233 206.469C205.233 208.747 203.533 210.94 201.357 213.133L198.314 216.142H205.506V221.14H190.052V217.043L196.937 209.92C197.678 209.264 198.191 208.388 198.399 207.421V207.421Z" fill="white"/>
<path d="M218.086 201.419L213.394 212.674H215.315V208.883H221.231V212.674H223.475V217.315H221.231V221.14H215.315V217.315H206.899V213.099L212 201.419H218.086Z" fill="white"/>
<path d="M241.734 211.33V221.14H235.41V213.149C235.446 212.889 235.426 212.624 235.352 212.372C235.277 212.121 235.149 211.888 234.977 211.689C234.804 211.491 234.591 211.332 234.352 211.223C234.113 211.115 233.853 211.058 233.591 211.058C232.349 211.058 231.567 212.027 231.567 213.523V221.14H225.243V200.297H231.567V207.964C232.062 207.182 232.752 206.542 233.568 206.107C234.385 205.672 235.301 205.457 236.226 205.482C236.984 205.463 237.737 205.603 238.437 205.895C239.137 206.187 239.768 206.623 240.288 207.175C240.807 207.727 241.205 208.382 241.454 209.098C241.703 209.814 241.799 210.575 241.734 211.33V211.33Z" fill="white"/>
<path d="M447.952 369.302V580.536C447.956 582.925 447.33 585.273 446.138 587.344C444.945 589.414 443.229 591.134 441.161 592.33C439.093 593.526 436.746 594.156 434.357 594.157C431.968 594.158 429.62 593.529 427.551 592.335L313.782 526.644L293.619 515.015C286.676 511.001 280.909 505.234 276.893 498.292C272.877 491.35 270.754 483.475 270.736 475.455V264.203C270.733 261.814 271.359 259.466 272.551 257.396C273.743 255.326 275.46 253.606 277.528 252.41C279.596 251.214 281.943 250.583 284.332 250.583C286.721 250.582 289.068 251.21 291.137 252.405L425.103 329.741C432.049 333.749 437.818 339.516 441.828 346.46C445.839 353.404 447.951 361.282 447.952 369.302V369.302Z" fill="#00A1AB"/>
<path opacity="0.5" d="M447.952 369.302V580.536C447.956 582.925 447.33 585.273 446.138 587.344C444.945 589.414 443.229 591.134 441.161 592.33C439.093 593.526 436.746 594.156 434.357 594.157C431.968 594.158 429.62 593.529 427.551 592.335L313.782 526.644L293.619 515.015C286.676 511.001 280.909 505.234 276.893 498.292C272.877 491.35 270.754 483.475 270.736 475.455V264.203C270.733 261.814 271.359 259.466 272.551 257.396C273.743 255.326 275.46 253.606 277.528 252.41C279.596 251.214 281.943 250.583 284.332 250.583C286.721 250.582 289.068 251.21 291.137 252.405L425.103 329.741C432.049 333.749 437.818 339.516 441.828 346.46C445.839 353.404 447.951 361.282 447.952 369.302V369.302Z" fill="white"/>
<path d="M382.415 494.292C382.415 494.292 403.716 529.619 388.331 569.452L313.731 526.644L382.415 494.292Z" fill="#263238"/>
<path d="M416.386 335.568C417.999 322.475 408.692 310.554 395.599 308.942C382.506 307.329 370.585 316.636 368.972 329.729C367.36 342.823 376.667 354.744 389.76 356.356C402.853 357.968 414.774 348.661 416.386 335.568Z" fill="#263238"/>
<path d="M392.802 265.648C392.802 265.648 400.13 253.748 402.374 254.615C404.618 255.482 400.912 266.822 400.912 266.822C400.912 266.822 411.996 269.134 409.939 271.922C407.882 274.71 394.332 274.047 394.332 274.047L392.802 265.648Z" fill="#263238"/>
<path d="M397.902 296.317C392.802 334.637 360.501 334.637 360.501 334.637L292.838 304.851C292.838 304.851 287.738 300.38 286.173 290.112C285.573 285.906 285.573 281.635 286.173 277.429C286.173 277.429 286.173 277.344 286.173 277.31C288.333 261.193 300.386 243.87 326.635 238.548C332.388 237.387 338.244 236.817 344.112 236.848C346.951 236.838 349.789 236.98 352.612 237.273C373.013 239.279 387.311 248.8 394.128 263.608C395.662 266.95 396.803 270.458 397.528 274.063C398.912 281.406 399.039 288.931 397.902 296.317Z" fill="#263238"/>
<path d="M235.46 370.441C235.46 370.441 211.438 369.608 202.19 393.018C202.19 393.018 212.39 399.903 225.77 393.018C239.15 386.132 235.46 370.441 235.46 370.441Z" fill="#00A1AB"/>
<path opacity="0.5" d="M235.46 370.441C235.46 370.441 211.438 369.608 202.19 393.018C202.19 393.018 212.39 399.903 225.77 393.018C239.15 386.132 235.46 370.441 235.46 370.441Z" fill="black"/>
<path d="M234.78 381.713C234.78 381.713 227.98 352.165 224.393 351.808C220.806 351.451 220.108 360.819 220.397 366.106L211.897 347.813C211.627 347.245 211.244 346.738 210.771 346.323C210.298 345.908 209.745 345.595 209.146 345.402C208.547 345.209 207.915 345.141 207.289 345.202C206.663 345.263 206.055 345.452 205.505 345.756C197.004 350.431 182.095 364.644 213.529 399.785L234.78 381.713Z" fill="#945959"/>
<path d="M321.824 361.278L316.724 360.615C311.584 359.933 306.355 360.632 301.575 362.64C296.794 364.648 292.635 367.892 289.523 372.039L259.176 412.433L235.375 370.441C235.375 370.441 232.519 399.002 202.105 393.018L234.763 447.982C236.83 451.461 239.707 454.39 243.149 456.519C246.591 458.648 250.496 459.914 254.532 460.21C258.569 460.505 262.616 459.821 266.332 458.216C270.047 456.611 273.32 454.132 275.871 450.991L303.82 416.632L321.824 361.278Z" fill="#00A1AB"/>
<path d="M386.597 455.546C379.797 472.785 379.049 476.151 383.197 484.771C386.086 491.137 388.363 497.763 389.997 504.56C389.997 504.56 358.478 539.887 313.613 526.661L293.45 515.032C289.257 512.614 285.48 509.537 282.263 505.92L288.401 460.154C288.709 457.745 288.465 455.297 287.686 452.996L281.243 434.108C278.099 424.883 277.631 414.956 279.894 405.476C282.156 395.996 287.056 387.35 294.028 380.539L315.687 359.373L372.571 366.649L381.072 369.08C386.637 370.69 391.434 374.253 394.582 379.116C397.73 383.979 399.018 389.815 398.208 395.551C395.42 415.612 390.864 444.717 386.597 455.546Z" fill="#00A1AB"/>
<path opacity="0.5" d="M386.597 455.546C379.797 472.785 379.049 476.151 383.197 484.771C386.086 491.137 388.363 497.763 389.997 504.56C389.997 504.56 358.478 539.887 313.613 526.661L293.45 515.032C289.257 512.614 285.48 509.537 282.263 505.92L288.401 460.154C288.709 457.745 288.465 455.297 287.686 452.996L281.243 434.108C278.099 424.883 277.631 414.956 279.894 405.476C282.156 395.996 287.056 387.35 294.028 380.539L315.687 359.373L372.571 366.649L381.072 369.08C386.637 370.69 391.434 374.253 394.582 379.116C397.73 383.979 399.018 389.815 398.208 395.551C395.42 415.612 390.864 444.717 386.597 455.546Z" fill="black"/>
<path d="M352.289 404.051L340.899 394.344C339.692 393.312 338.238 392.613 336.678 392.314C335.119 392.016 333.509 392.13 332.007 392.644L318.237 397.387L316.383 389.669C316.094 388.468 315.565 387.338 314.827 386.348C314.089 385.357 313.159 384.526 312.091 383.905C311.024 383.284 309.841 382.885 308.615 382.733C307.39 382.582 306.146 382.68 304.959 383.022L298.992 384.722L309.09 365.375C312.387 359.074 317.466 353.882 323.694 350.448L327.655 348.272L360.381 349.972C360.381 349.972 372.571 355.072 372.571 366.548L352.289 403.949" fill="#00A1AB"/>
<path d="M360.518 364.473L327.706 390.042V308.625H360.518V364.473Z" fill="#945959"/>
<path d="M328.216 357.758L318.237 397.455L360.382 364.473L328.216 357.758Z" fill="#945959"/>
<path d="M327.706 351.858C335.002 349.149 341.672 344.985 347.309 339.62C352.947 334.254 357.435 327.798 360.501 320.645V308.625H327.689L327.706 351.858Z" fill="#703838"/>
<path d="M334.779 248.29C322.334 248.29 295.881 255.226 292.821 287.799C289.761 320.373 292.719 345.602 309.515 348.05C326.312 350.498 365.346 338.309 370.582 296.147C375.818 253.985 346.9 248.29 334.779 248.29Z" fill="#945959"/>
<path d="M315.193 301.587V320.781L303.939 317.33L315.193 301.587Z" fill="#703838"/>
<path d="M327.706 308.813C329.866 308.813 331.616 307.062 331.616 304.902C331.616 302.743 329.866 300.992 327.706 300.992C325.547 300.992 323.796 302.743 323.796 304.902C323.796 307.062 325.547 308.813 327.706 308.813Z" fill="#263238"/>
<path d="M305.877 302.183C305.874 302.955 305.642 303.709 305.21 304.35C304.778 304.991 304.166 305.49 303.452 305.783C302.737 306.076 301.951 306.151 301.194 305.999C300.436 305.846 299.741 305.472 299.196 304.924C298.651 304.377 298.28 303.68 298.131 302.922C297.981 302.164 298.06 301.379 298.356 300.665C298.653 299.952 299.154 299.342 299.796 298.913C300.439 298.484 301.194 298.255 301.967 298.255C302.482 298.255 302.992 298.357 303.467 298.555C303.943 298.752 304.375 299.042 304.738 299.407C305.101 299.772 305.389 300.205 305.584 300.681C305.78 301.157 305.879 301.668 305.877 302.183V302.183Z" fill="#263238"/>
<path d="M297.19 294.023L304.84 289.483C304.84 289.483 301.916 286.44 298.992 288.259C296.068 290.078 297.19 294.023 297.19 294.023Z" fill="#263238"/>
<path d="M309.906 328.568C313.632 328.84 317.34 327.846 320.43 325.746C320.43 325.746 321.161 331.305 316.503 332.359C311.844 333.413 309.906 328.568 309.906 328.568Z" fill="#703838"/>
<path d="M303.225 259.375C303.225 259.375 307.9 304.342 369.052 305.753C369.052 305.753 387.532 261.058 351.014 246.54C314.497 232.021 303.225 259.375 303.225 259.375Z" fill="#263238"/>
<path d="M387.056 299.021L379.541 294.669C376.685 292.969 372.741 293.207 368.372 295.723C359.701 300.721 352.663 312.911 352.663 322.924C352.663 327.939 354.363 331.425 357.287 333.125L364.666 337.375L365.091 337.613L365.346 337.766C368.134 339.126 371.857 338.803 375.954 336.44C384.624 331.34 391.663 319.252 391.663 309.239C391.612 304.172 389.861 300.67 387.056 299.021Z" fill="#00A1AB"/>
<path d="M386.997 324.627C393.128 314.007 393.128 302.529 386.997 298.989C380.866 295.449 370.925 301.189 364.794 311.808C358.663 322.428 358.663 333.906 364.794 337.446C370.925 340.986 380.865 335.246 386.997 324.627Z" fill="#00A1AB"/>
<path opacity="0.5" d="M386.997 324.627C393.128 314.007 393.128 302.529 386.997 298.989C380.866 295.449 370.925 301.189 364.794 311.808C358.663 322.428 358.663 333.906 364.794 337.446C370.925 340.986 380.865 335.246 386.997 324.627Z" fill="black"/>
<path d="M390.065 308.457L384.965 305.481C383.027 304.325 380.324 304.478 377.331 306.195C374.206 308.238 371.605 310.987 369.738 314.221C367.872 317.455 366.792 321.083 366.587 324.811C366.587 328.211 367.794 330.642 369.749 331.765L374.849 334.672C374.94 334.738 375.037 334.795 375.138 334.842L375.308 334.944C376.504 335.397 377.792 335.551 379.061 335.391C380.329 335.23 381.539 334.762 382.585 334.026C385.708 331.985 388.308 329.238 390.174 326.007C392.041 322.776 393.121 319.152 393.329 315.427C393.193 311.976 392.003 309.579 390.065 308.457Z" fill="#00A1AB"/>
<path d="M393.193 315.393C392.985 319.118 391.905 322.742 390.038 325.973C388.172 329.204 385.572 331.951 382.449 333.992C376.499 337.392 371.687 334.638 371.687 327.786C371.889 324.058 372.969 320.429 374.839 317.197C376.709 313.965 379.317 311.221 382.449 309.187C388.382 305.753 393.193 308.524 393.193 315.393Z" fill="#00A1AB"/>
<path opacity="0.3" d="M393.193 315.393C392.985 319.118 391.905 322.742 390.038 325.973C388.172 329.204 385.572 331.951 382.449 333.992C376.499 337.392 371.687 334.638 371.687 327.786C371.889 324.058 372.969 320.429 374.839 317.197C376.709 313.965 379.317 311.221 382.449 309.187C388.382 305.753 393.193 308.524 393.193 315.393Z" fill="black"/>
<path d="M363.714 239.518C358.84 235.753 352.871 233.682 346.713 233.619H345.2C338.965 233.551 332.738 234.121 326.618 235.319C327.74 235.319 328.863 235.319 330.019 235.319H326.618V238.481H329.781C340.678 238.851 351.005 243.445 358.578 251.291C366.151 259.137 370.376 269.619 370.361 280.524V293.903C370.361 294.432 370.472 294.955 370.686 295.439C370.901 295.922 371.215 296.355 371.608 296.709C372 297.063 372.463 297.331 372.966 297.495C373.469 297.659 374 297.715 374.527 297.66H374.918L378.318 296.606C378.091 296.678 377.857 296.723 377.621 296.742C378.634 296.605 379.562 296.099 380.227 295.322C380.891 294.544 381.247 293.549 381.225 292.526V280.116C381.191 257.658 371.483 245.587 363.714 239.518Z" fill="#00A1AB"/>
<path d="M342.31 347.115C340.908 347.115 339.522 346.813 338.247 346.231L327.621 341.317C327.455 341.258 327.303 341.165 327.175 341.044C327.046 340.922 326.945 340.776 326.876 340.613C326.807 340.451 326.773 340.275 326.776 340.099C326.778 339.923 326.817 339.748 326.89 339.588C326.963 339.427 327.069 339.284 327.201 339.166C327.332 339.048 327.487 338.959 327.655 338.905C327.823 338.85 328 338.831 328.176 338.848C328.351 338.865 328.521 338.919 328.675 339.005L339.301 343.919C340.656 344.549 342.174 344.74 343.643 344.466C345.112 344.191 346.459 343.465 347.495 342.388L357.696 331.848C357.935 331.609 358.259 331.475 358.597 331.475C358.935 331.475 359.259 331.609 359.498 331.848C359.732 332.089 359.864 332.412 359.864 332.749C359.864 333.086 359.732 333.409 359.498 333.65L349.297 344.191C348.389 345.123 347.302 345.863 346.102 346.365C344.901 346.867 343.611 347.122 342.31 347.115V347.115Z" fill="#00A1AB"/>
<path opacity="0.5" d="M342.31 347.115C340.908 347.115 339.522 346.813 338.247 346.231L327.621 341.317C327.455 341.258 327.303 341.165 327.175 341.044C327.046 340.922 326.945 340.776 326.876 340.613C326.807 340.451 326.773 340.275 326.776 340.099C326.778 339.923 326.817 339.748 326.89 339.588C326.963 339.427 327.069 339.284 327.201 339.166C327.332 339.048 327.487 338.959 327.655 338.905C327.823 338.85 328 338.831 328.176 338.848C328.351 338.865 328.521 338.919 328.675 339.005L339.301 343.919C340.656 344.549 342.174 344.74 343.643 344.466C345.112 344.191 346.459 343.465 347.495 342.388L357.696 331.848C357.935 331.609 358.259 331.475 358.597 331.475C358.935 331.475 359.259 331.609 359.498 331.848C359.732 332.089 359.864 332.412 359.864 332.749C359.864 333.086 359.732 333.409 359.498 333.65L349.297 344.191C348.389 345.123 347.302 345.863 346.102 346.365C344.901 346.867 343.611 347.122 342.31 347.115V347.115Z" fill="black"/>
<path d="M330.409 337.748C330.409 338.73 330.118 339.69 329.573 340.506C329.027 341.323 328.252 341.959 327.345 342.335C326.438 342.71 325.44 342.809 324.477 342.617C323.514 342.426 322.629 341.953 321.935 341.259C321.241 340.564 320.768 339.68 320.576 338.717C320.385 337.754 320.483 336.756 320.859 335.849C321.235 334.942 321.871 334.166 322.687 333.621C323.504 333.075 324.463 332.784 325.445 332.784C326.762 332.784 328.024 333.307 328.955 334.238C329.886 335.169 330.409 336.432 330.409 337.748V337.748Z" fill="#00A1AB"/>
<path opacity="0.5" d="M330.409 337.748C330.409 338.73 330.118 339.69 329.573 340.506C329.027 341.323 328.252 341.959 327.345 342.335C326.438 342.71 325.44 342.809 324.477 342.617C323.514 342.426 322.629 341.953 321.935 341.259C321.241 340.564 320.768 339.68 320.576 338.717C320.385 337.754 320.483 336.756 320.859 335.849C321.235 334.942 321.871 334.166 322.687 333.621C323.504 333.075 324.463 332.784 325.445 332.784C326.762 332.784 328.024 333.307 328.955 334.238C329.886 335.169 330.409 336.432 330.409 337.748V337.748Z" fill="black"/>
<path d="M381.191 280.116V292.526C381.213 293.549 380.857 294.544 380.193 295.321C379.528 296.099 378.6 296.605 377.587 296.742C377.026 296.802 376.46 296.743 375.924 296.569C375.389 296.396 374.895 296.111 374.477 295.734C374.058 295.358 373.724 294.897 373.495 294.382C373.266 293.867 373.149 293.31 373.149 292.747V280.116C373.159 274.087 371.949 268.119 369.592 262.57C367.235 257.021 363.78 252.007 359.434 247.828C355.089 243.65 349.943 240.393 344.306 238.255C338.67 236.117 332.659 235.141 326.635 235.387C332.755 234.189 338.981 233.619 345.217 233.686H346.696C352.854 233.75 358.823 235.821 363.697 239.586C371.483 245.587 381.191 257.658 381.191 280.116Z" fill="#00A1AB"/>
<path opacity="0.5" d="M381.191 280.116V292.526C381.213 293.549 380.857 294.544 380.193 295.321C379.528 296.099 378.6 296.605 377.587 296.742C377.026 296.802 376.46 296.743 375.924 296.569C375.389 296.396 374.895 296.111 374.477 295.734C374.058 295.358 373.724 294.897 373.495 294.382C373.266 293.867 373.149 293.31 373.149 292.747V280.116C373.159 274.087 371.949 268.119 369.592 262.57C367.235 257.021 363.78 252.007 359.434 247.828C355.089 243.65 349.943 240.393 344.306 238.255C338.67 236.117 332.659 235.141 326.635 235.387C332.755 234.189 338.981 233.619 345.217 233.686H346.696C352.854 233.75 358.823 235.821 363.697 239.586C371.483 245.587 381.191 257.658 381.191 280.116Z" fill="black"/>
<path d="M362.082 513.995C362.082 513.995 353.854 536.657 383.265 546.858C383.265 546.858 392.87 532.747 383.265 521.204C373.659 509.66 362.082 513.995 362.082 513.995Z" fill="#00A1AB"/>
<path opacity="0.7" d="M362.082 513.995C362.082 513.995 353.854 536.657 383.265 546.858C383.265 546.858 392.87 532.747 383.265 521.204C373.659 509.66 362.082 513.995 362.082 513.995Z" fill="black"/>
<path d="M372.402 515.032C372.402 515.032 343.67 525.556 343.823 529.636C343.976 533.716 356.03 530.928 356.03 530.928L351.627 533.818C346.99 536.843 343.398 541.225 341.341 546.365V546.365C340.893 547.498 340.877 548.757 341.297 549.902C341.717 551.046 342.544 551.996 343.619 552.57L354.534 558.35C355.15 558.677 355.826 558.877 356.521 558.939C357.216 559 357.916 558.921 358.58 558.707C359.244 558.493 359.859 558.148 360.387 557.693C360.916 557.237 361.348 556.68 361.657 556.055V556.055C362.266 554.853 363.106 553.783 364.131 552.908C365.155 552.033 366.342 551.369 367.624 550.955C373.558 548.983 384.625 543.304 389.062 527.766L372.402 515.032Z" fill="#945959"/>
<path d="M381.021 369.046C381.021 369.046 365.72 377.547 373.846 403.354C381.973 429.161 397.222 469.198 397.222 469.198L362.082 513.995C365.836 514.448 369.453 515.687 372.695 517.632C375.938 519.577 378.735 522.184 380.902 525.283C382.978 528.435 384.274 532.034 384.685 535.785C385.096 539.536 384.609 543.331 383.265 546.857L426.889 490.755C430.923 485.57 433.601 479.462 434.682 472.982C435.762 466.502 435.211 459.855 433.077 453.642L414.376 399.036C412.09 392.365 408.292 386.314 403.278 381.357C398.264 376.399 392.171 372.668 385.475 370.457L381.021 369.046Z" fill="#00A1AB"/>
<path d="M122.745 216.601L55.1332 177.499C54.3551 176.96 53.4549 176.623 52.514 176.519C51.573 176.415 50.621 176.548 49.744 176.904V176.904C49.5591 176.99 49.3827 177.092 49.217 177.21L34.5113 185.83H34.6133C32.7602 186.884 31.5872 189.332 31.5872 192.834V268.045C31.5872 274.404 35.4463 281.799 40.2235 284.553L107.836 323.655C108.693 324.275 109.715 324.63 110.772 324.676C111.83 324.721 112.878 324.455 113.786 323.91C113.74 323.928 113.699 323.957 113.667 323.995L128.27 315.494C130.175 314.474 131.382 311.992 131.382 308.439V233.109C131.382 226.75 127.59 219.355 122.745 216.601Z" fill="#00A1AB"/>
<path d="M128.968 223.724C127.6 220.815 125.444 218.348 122.745 216.601L55.1334 177.499C54.3553 176.96 53.4551 176.623 52.5141 176.519C51.5732 176.415 50.6211 176.548 49.7442 176.904V176.904C49.5593 176.99 49.3829 177.092 49.2171 177.21L34.5115 185.83C35.411 185.37 36.4197 185.166 37.4272 185.241C38.4347 185.316 39.4021 185.667 40.2237 186.255L107.836 225.356C110.626 227.181 112.838 229.764 114.211 232.803L128.968 223.724Z" fill="#00A1AB"/>
<path d="M116.472 317.041C116.472 320.441 115.384 322.805 113.667 323.842L128.27 315.341C130.174 314.321 131.381 311.839 131.381 308.286V233.109C131.309 229.836 130.483 226.625 128.967 223.724L114.211 232.803C115.627 235.618 116.4 238.713 116.472 241.864V317.041Z" fill="#00A1AB"/>
<path opacity="0.3" d="M128.968 223.724C127.6 220.815 125.444 218.348 122.745 216.601L55.1334 177.499C54.3553 176.96 53.4551 176.623 52.5141 176.519C51.5732 176.415 50.6211 176.548 49.7442 176.904V176.904C49.5593 176.99 49.3829 177.092 49.2171 177.21L34.5115 185.83C35.411 185.37 36.4197 185.166 37.4272 185.241C38.4347 185.316 39.4021 185.667 40.2237 186.255L107.836 225.356C110.626 227.181 112.838 229.764 114.211 232.803L128.968 223.724Z" fill="black"/>
<path opacity="0.6" d="M116.472 317.041C116.472 320.441 115.384 322.805 113.667 323.842L128.27 315.341C130.174 314.321 131.381 311.839 131.381 308.286V233.109C131.309 229.836 130.483 226.625 128.967 223.724L114.211 232.803C115.627 235.618 116.4 238.713 116.472 241.864V317.041Z" fill="black"/>
<path d="M96.6489 263.404C96.6489 273.145 92.7898 276.46 87.0095 273.111C85.415 272.203 84.0206 270.982 82.9104 269.522C81.8001 268.061 80.997 266.39 80.5492 264.611C78.8491 266.702 76.214 266.838 72.5079 264.696C66.4216 261.177 61.6274 252.795 61.6274 244.652C61.6274 236.509 66.3706 233.704 72.5079 237.24C75.6221 239.075 78.1377 241.774 79.7502 245.009V241.796L86.1595 245.502V263.115C86.064 264.042 86.2243 264.977 86.6229 265.819C87.0215 266.661 87.6433 267.378 88.4206 267.892C90.5797 269.15 91.9057 267.025 91.9057 260.718C91.9057 249.684 84.8334 237.988 74.3779 231.952C63.9225 225.917 56.8672 230.116 56.8672 241.473C57.0041 247.499 58.6646 253.392 61.6938 258.603C64.723 263.815 69.0223 268.174 74.1909 271.275C76.9973 273.004 80.1842 274.019 83.4734 274.233L84.9864 280.099C81.1566 279.79 77.4557 278.571 74.1909 276.545C60.5903 268.674 51.5969 252.829 51.5969 238.481C51.5969 224.132 60.6753 218.93 74.3779 226.852C87.6215 234.486 96.6489 249.769 96.6489 263.404ZM79.8522 255.226C79.8853 253.071 79.3592 250.943 78.3254 249.051C77.2915 247.159 75.7851 245.567 73.9529 244.431C70.5528 242.442 68.1217 243.836 68.1217 248.46C68.0779 250.619 68.5916 252.754 69.613 254.656C70.6345 256.559 72.1292 258.167 73.9529 259.324C77.3531 261.245 79.8522 260.004 79.8522 255.226Z" fill="#00A1AB"/>
<g opacity="0.9">
<path opacity="0.9" d="M96.6489 259.881C96.6489 269.622 92.7898 272.937 87.0095 269.588C85.415 268.68 84.0206 267.459 82.9104 265.999C81.8001 264.538 80.997 262.867 80.5492 261.088C78.8491 263.179 76.214 263.315 72.5079 261.173C66.4216 257.654 61.6274 249.272 61.6274 241.129C61.6274 232.986 66.3706 230.181 72.5079 233.717C75.6221 235.552 78.1377 238.251 79.7502 241.486V238.273L86.1595 241.979V259.592C86.064 260.519 86.2243 261.454 86.6229 262.296C87.0215 263.138 87.6433 263.855 88.4206 264.369C90.5797 265.627 91.9057 263.502 91.9057 257.195C91.9057 246.161 84.8334 234.465 74.3779 228.429C63.9225 222.394 56.8672 226.593 56.8672 237.95C57.0041 243.976 58.6646 249.869 61.6938 255.08C64.723 260.292 69.0223 264.651 74.1909 267.752C76.9973 269.481 80.1842 270.497 83.4734 270.71L84.9864 276.576C81.1566 276.267 77.4557 275.049 74.1909 273.022C60.5903 265.151 51.5969 249.306 51.5969 234.958C51.5969 220.609 60.6753 215.407 74.3779 223.329C87.6215 230.963 96.6489 246.246 96.6489 259.881ZM79.8522 251.704C79.8853 249.548 79.3592 247.42 78.3254 245.528C77.2915 243.636 75.7851 242.045 73.9529 240.908C70.5528 238.919 68.1217 240.313 68.1217 244.937C68.0779 247.096 68.5916 249.231 69.613 251.133C70.6345 253.036 72.1292 254.644 73.9529 255.801C77.3531 257.722 79.8522 256.481 79.8522 251.704Z" fill="white"/>
</g>
<path d="M122.745 350.533L55.1332 311.432C54.3562 310.889 53.4549 310.552 52.5128 310.451C51.5707 310.35 50.6183 310.488 49.744 310.854V310.854C49.5591 310.939 49.3827 311.041 49.217 311.16L34.5113 319.779H34.6133C32.7602 320.833 31.5872 323.281 31.5872 326.766V401.944C31.5872 408.319 35.4463 415.697 40.2235 418.451L107.836 457.553C108.692 458.178 109.713 458.535 110.772 458.581C111.831 458.626 112.879 458.357 113.786 457.808L113.667 457.91L128.27 449.325C130.175 448.322 131.382 445.925 131.382 442.27V367.024C131.382 360.666 127.59 353.288 122.745 350.533Z" fill="#00A1AB"/>
<path d="M128.968 357.657C127.604 354.745 125.448 352.276 122.745 350.533L55.1334 311.432C54.3564 310.889 53.4551 310.552 52.513 310.451C51.5708 310.35 50.6185 310.488 49.7442 310.854V310.854C49.5593 310.939 49.3829 311.041 49.2171 311.16L34.5115 319.779C35.409 319.315 36.4172 319.107 37.425 319.179C38.4328 319.251 39.4013 319.6 40.2237 320.187L107.836 359.289C110.631 361.116 112.843 363.706 114.211 366.752V366.752L128.968 357.657Z" fill="#00A1AB"/>
<path d="M116.472 450.956C116.472 454.357 115.384 456.72 113.667 457.842L128.27 449.256C130.174 448.253 131.381 445.856 131.381 442.201V367.024C131.309 363.757 130.483 360.551 128.967 357.656L114.211 366.735C115.627 369.544 116.4 372.634 116.472 375.779V450.956Z" fill="#00A1AB"/>
<path opacity="0.3" d="M128.968 357.657C127.604 354.745 125.448 352.276 122.745 350.533L55.1334 311.432C54.3564 310.889 53.4551 310.552 52.513 310.451C51.5708 310.35 50.6185 310.488 49.7442 310.854V310.854C49.5593 310.939 49.3829 311.041 49.2171 311.16L34.5115 319.779C35.409 319.315 36.4172 319.107 37.425 319.179C38.4328 319.251 39.4013 319.6 40.2237 320.187L107.836 359.289C110.631 361.116 112.843 363.706 114.211 366.752V366.752L128.968 357.657Z" fill="black"/>
<path opacity="0.6" d="M116.472 450.956C116.472 454.357 115.384 456.72 113.667 457.842L128.27 449.256C130.174 448.253 131.381 445.856 131.381 442.201V367.024C131.309 363.757 130.483 360.551 128.967 357.656L114.211 366.735C115.627 369.544 116.4 372.634 116.472 375.779V450.956Z" fill="black"/>
<path d="M66.4729 384.143L50.1692 357.656V393.545L66.4729 384.143Z" fill="#00A1AB"/>
<path d="M81.6204 391.776L97.8901 419.947V384.109L81.6204 391.776Z" fill="#00A1AB"/>
<path d="M52.6343 356.45L69.38 383.651C69.4509 383.711 69.5138 383.779 69.567 383.855C69.5818 383.922 69.5818 383.992 69.567 384.059L74.5483 392.151L78.7644 390.162C78.8301 390.091 78.9044 390.028 78.9855 389.975C79.1517 389.878 79.3376 389.82 79.5295 389.805L96.5302 381.832L52.6343 356.45Z" fill="#00A1AB"/>
<path d="M79.1553 392.932L74.5991 395.074C74.4235 395.156 74.2317 395.197 74.0381 395.193C73.8034 395.196 73.5721 395.138 73.3665 395.025C73.161 394.912 72.9882 394.747 72.865 394.547L67.8838 386.455L51.5291 395.907L95.544 421.307L79.1553 392.932Z" fill="#00A1AB"/>
<g opacity="0.9">
<path opacity="0.9" d="M66.4729 384.143L50.1692 357.656V393.545L66.4729 384.143Z" fill="white"/>
<path opacity="0.9" d="M81.6206 391.777L97.8903 419.947V384.11L81.6206 391.777Z" fill="white"/>
<path opacity="0.9" d="M52.6343 356.45L69.38 383.651C69.4509 383.711 69.5138 383.779 69.567 383.855C69.5818 383.922 69.5818 383.992 69.567 384.059L74.5483 392.151L78.7644 390.162C78.8301 390.091 78.9044 390.028 78.9855 389.975C79.1517 389.878 79.3376 389.82 79.5295 389.805L96.5302 381.832L52.6343 356.45Z" fill="white"/>
<path opacity="0.9" d="M79.1555 392.933L74.5993 395.075C74.4238 395.157 74.2319 395.197 74.0383 395.194C73.8037 395.197 73.5723 395.139 73.3668 395.025C73.1612 394.912 72.9884 394.748 72.8652 394.548L67.884 386.456L51.5293 395.908L95.5443 421.307L79.1555 392.933Z" fill="white"/>
</g>
<path d="M122.746 82.7385L55.1342 43.6367C54.3572 43.0945 53.4559 42.7572 52.5137 42.6561C51.5716 42.5551 50.6193 42.6935 49.745 43.0587V43.0587C49.5601 43.1441 49.3837 43.2465 49.2179 43.3647L34.5123 51.9841H34.6143C32.7612 53.0212 31.5881 55.4863 31.5881 58.9714V134.149C31.5881 140.507 35.4473 147.902 40.2245 150.657L107.837 189.758C108.693 190.383 109.714 190.74 110.773 190.786C111.832 190.831 112.88 190.562 113.787 190.013L113.668 190.098L128.271 181.598C130.176 180.595 131.383 178.198 131.383 174.543V99.1782C131.383 92.8199 127.591 85.4246 122.746 82.7385Z" fill="#00A1AB"/>
<path d="M128.968 89.8093C127.605 86.8925 125.449 84.418 122.745 82.669L55.1334 43.6353C54.3564 43.093 53.4551 42.7557 52.513 42.6547C51.5708 42.5536 50.6185 42.6921 49.7442 43.0572V43.0572C49.5593 43.1426 49.3829 43.245 49.2171 43.3633L34.5115 51.9826C35.409 51.5185 36.4172 51.3111 37.425 51.383C38.4328 51.455 39.4013 51.8037 40.2237 52.3907L107.836 91.4924C110.631 93.3194 112.843 95.9095 114.211 98.9557V98.9557L128.968 89.8093Z" fill="#00A1AB"/>
<path d="M116.472 183.041C116.472 186.441 115.384 188.805 113.667 189.842L128.27 181.341C130.174 180.338 131.381 177.941 131.381 174.286V99.1765C131.309 95.9097 130.483 92.7038 128.967 89.8091L114.211 98.8875C115.627 101.697 116.4 104.787 116.472 107.932V183.041Z" fill="#00A1AB"/>
<path opacity="0.3" d="M128.968 89.8093C127.605 86.8925 125.449 84.418 122.745 82.669L55.1334 43.6353C54.3564 43.093 53.4551 42.7557 52.513 42.6547C51.5708 42.5536 50.6185 42.6921 49.7442 43.0572V43.0572C49.5593 43.1426 49.3829 43.245 49.2171 43.3633L34.5115 51.9826C35.409 51.5185 36.4172 51.3111 37.425 51.383C38.4328 51.455 39.4013 51.8037 40.2237 52.3907L107.836 91.4924C110.631 93.3194 112.843 95.9095 114.211 98.9557V98.9557L128.968 89.8093Z" fill="black"/>
<path opacity="0.6" d="M116.472 183.041C116.472 186.441 115.384 188.805 113.667 189.842L128.27 181.341C130.174 180.338 131.381 177.941 131.381 174.286V99.1765C131.309 95.9097 130.483 92.7038 128.967 89.8091L114.211 98.8875C115.627 101.697 116.4 104.787 116.472 107.932V183.041Z" fill="black"/>
<path d="M94.354 150.741C91.7528 146.457 89.1347 142.24 86.5336 137.922C86.121 137.104 85.5443 136.38 84.8393 135.795C84.1344 135.21 83.3164 134.777 82.4364 134.522C81.1784 134.267 79.9203 133.978 78.6283 133.604C78.1681 133.412 77.7811 133.079 77.5232 132.652C73.2669 125.367 69.8831 117.607 67.4418 109.531C67.3898 109.358 67.3751 109.177 67.3985 108.998C67.422 108.819 67.4831 108.647 67.5778 108.494C68.3768 107.695 69.2778 106.964 70.0939 106.25C70.9099 105.536 71.3349 103.887 70.7399 101.745C69.4818 97.2053 68.2748 92.6661 67.0167 88.1439C66.7733 86.859 66.1958 85.6608 65.3422 84.67C64.4887 83.6792 63.3892 82.9306 62.1545 82.4997C59.4129 81.7374 56.5024 81.8444 53.8242 82.8057C52.7871 83.1967 52.2431 84.1317 52.2261 85.7468C52.6681 88.8579 52.9571 91.9351 53.5521 95.0972C57.7457 117.901 67.8328 138.869 83.8135 158C84.2307 158.634 84.7912 159.162 85.4497 159.54C86.1083 159.918 86.8464 160.136 87.6047 160.176C90.2504 160.113 92.7922 159.134 94.796 157.405C96.3091 156.045 96.156 153.631 94.354 150.741Z" fill="#00A1AB"/>
<path d="M94.1503 127.567C93.7947 122.677 92.4469 117.911 90.1891 113.559C88.5034 110.159 86.3583 107.007 83.8138 104.191C83.1508 103.443 82.5898 103.205 82.2498 103.766C81.9098 104.327 82.2498 105.126 82.8958 105.857L83.5588 106.622C88.2578 112.047 91.2192 118.757 92.0592 125.884C92.0509 126.404 92.1022 126.923 92.2122 127.431C92.4258 128.016 92.7686 128.545 93.2153 128.978C93.5723 129.233 93.9803 128.978 94.2693 128.978C94.1673 128.281 94.1843 127.924 94.1503 127.567Z" fill="#00A1AB"/>
<path d="M78.7472 113.611C80.8821 115.959 82.1793 118.948 82.4363 122.111C82.5483 122.592 82.7256 123.056 82.9634 123.488C84.0004 124.338 84.5104 124.049 84.5104 122.978C84.1469 118.923 82.4696 115.096 79.7332 112.081C79.0872 111.418 78.5602 111.214 78.2542 111.775C78.1441 112.095 78.1322 112.441 78.22 112.768C78.3079 113.095 78.4914 113.389 78.7472 113.611Z" fill="#00A1AB"/>
<g opacity="0.9">
<path opacity="0.9" d="M94.354 150.741C91.7528 146.457 89.1347 142.24 86.5336 137.922C86.121 137.104 85.5443 136.38 84.8393 135.795C84.1344 135.21 83.3164 134.777 82.4364 134.522C81.1784 134.267 79.9203 133.978 78.6283 133.604C78.1681 133.412 77.7811 133.079 77.5232 132.652C73.2669 125.367 69.8831 117.607 67.4418 109.531C67.3898 109.358 67.3751 109.177 67.3985 108.998C67.422 108.819 67.4831 108.647 67.5778 108.494C68.3768 107.695 69.2778 106.964 70.0939 106.25C70.9099 105.536 71.3349 103.887 70.7399 101.745C69.4818 97.2053 68.2748 92.6661 67.0167 88.1439C66.7733 86.859 66.1958 85.6608 65.3422 84.67C64.4887 83.6792 63.3892 82.9306 62.1545 82.4997C59.4129 81.7374 56.5024 81.8444 53.8242 82.8057C52.7871 83.1967 52.2431 84.1317 52.2261 85.7468C52.6681 88.8579 52.9571 91.9351 53.5521 95.0972C57.7457 117.901 67.8328 138.869 83.8135 158C84.2307 158.634 84.7912 159.162 85.4497 159.54C86.1083 159.918 86.8464 160.136 87.6047 160.176C90.2504 160.113 92.7922 159.134 94.796 157.405C96.3091 156.045 96.156 153.631 94.354 150.741Z" fill="white"/>
<path opacity="0.9" d="M94.1498 127.569C93.7942 122.679 92.4464 117.912 90.1886 113.56C88.5029 110.16 86.3578 107.008 83.8134 104.193C83.1503 103.445 82.5893 103.207 82.2493 103.768C81.9093 104.329 82.2493 105.128 82.8953 105.859L83.5583 106.624C88.2573 112.048 91.2187 118.759 92.0587 125.886C92.0504 126.406 92.1018 126.925 92.2117 127.433C92.4253 128.018 92.7681 128.546 93.2148 128.98C93.5718 129.235 93.9798 128.98 94.2688 128.98C94.1668 128.283 94.1838 127.926 94.1498 127.569Z" fill="white"/>
<path opacity="0.9" d="M78.7472 113.611C80.8821 115.96 82.1793 118.949 82.4363 122.112C82.5483 122.593 82.7256 123.056 82.9634 123.489C84.0004 124.339 84.5104 124.05 84.5104 122.979C84.1469 118.923 82.4696 115.097 79.7332 112.081C79.0872 111.418 78.5602 111.214 78.2542 111.775C78.1441 112.096 78.1322 112.442 78.22 112.769C78.3079 113.096 78.4914 113.389 78.7472 113.611Z" fill="white"/>
</g>
</g>
</svg>
